<?xml version="1.0" encoding="utf-8"?>
<!-- Generator: Adobe Illustrator 16.0.0, SVG Export Plug-In . SVG Version: 6.00 Build 0)  -->
<!DOCTYPE svg PUBLIC "-//W3C//DTD SVG 1.1//EN" "http://www.w3.org/Graphics/SVG/1.1/DTD/svg11.dtd">
<svg version="1.1" id="Layer_1" xmlns="http://www.w3.org/2000/svg" xmlns:xlink="http://www.w3.org/1999/xlink" x="0px" y="0px"
	 width="250px" height="40px" viewBox="0 0 250 40" enable-background="new 0 0 250 40" xml:space="preserve">
<g>
	<path fill="#FFFFFF" d="M26.245,15.235h1.872l0.182,1.924c1.092-1.404,2.912-2.21,4.524-2.21c2.678,0,3.848,1.508,3.848,4.056
		v9.932h-2.184v-8.32c0-2.808-0.286-3.926-2.34-3.926c-1.612,0-2.99,1.196-3.718,2.288v9.958h-2.184V15.235z"/>
	<path fill="#FFFFFF" d="M48.787,27.195h3.848v1.742H42.39v-1.742h4.212V16.978h-4.082v-1.742h6.266V27.195z M48.656,10.374
		c0,0.884-0.65,1.534-1.612,1.534c-0.936,0-1.56-0.65-1.56-1.534c0-0.884,0.624-1.534,1.56-1.534
		C48.006,8.839,48.656,9.489,48.656,10.374z"/>
	<path fill="#FFFFFF" d="M64.386,27.195h3.848v1.742H57.99v-1.742h4.212V16.978H58.12v-1.742h6.266V27.195z M64.256,10.374
		c0,0.884-0.65,1.534-1.612,1.534c-0.936,0-1.56-0.65-1.56-1.534c0-0.884,0.624-1.534,1.56-1.534
		C63.606,8.839,64.256,9.489,64.256,10.374z"/>
	<path fill="#FFFFFF" d="M79.647,29.016c-0.962,2.809-2.496,5.045-6.136,5.434l-0.313-1.74c2.809-0.494,3.641-1.664,4.342-3.771
		h-0.728l-4.758-13.702h2.314l3.926,12.038l3.874-12.038h2.262L79.647,29.016z"/>
	<path fill="#FFFFFF" d="M94.363,27.404c1.404,0,2.444-0.416,3.666-1.223l1.014,1.457c-1.274,0.986-2.99,1.586-4.68,1.586
		c-4.004,0-6.266-2.861-6.266-7.125c0-4.134,2.314-7.15,5.954-7.15c3.458,0,5.59,2.574,5.59,6.734c0,0.469-0.026,0.885-0.052,1.17
		h-9.204C90.489,26.025,92.257,27.404,94.363,27.404z M90.385,21.189h7.124c-0.052-2.938-1.352-4.446-3.432-4.446
		C92.049,16.744,90.567,18.173,90.385,21.189z"/>
	<path fill="#FFFFFF" d="M110.353,14.95c3.641,0,5.122,2.834,5.122,7.125c0,4.16-1.897,7.15-5.434,7.15
		c-1.56,0-2.782-0.521-3.718-1.717l-0.156,1.43h-1.924V9.723l2.184-0.26v7.566C107.441,15.704,108.767,14.95,110.353,14.95z
		 M113.109,22.074c0-3.563-1.118-5.357-3.25-5.357c-1.509,0-2.679,1.092-3.433,2.185v6.786c0.728,1.119,1.846,1.768,3.12,1.768
		C111.809,27.455,113.109,25.713,113.109,22.074z"/>
	<path fill="#FFFFFF" d="M130.944,22.074c0,4.211-2.08,7.15-5.901,7.15c-3.849,0-5.902-2.809-5.902-7.125
		c0-4.212,2.08-7.15,5.928-7.15C128.917,14.95,130.944,17.757,130.944,22.074z M121.506,22.1c0,3.641,1.171,5.33,3.537,5.33
		c2.365,0,3.535-1.689,3.535-5.355c0-3.615-1.17-5.331-3.51-5.331C122.702,16.744,121.506,18.459,121.506,22.1z"/>
	<path fill="#FFFFFF" d="M146.389,27.689l-0.547,1.561c-1.17-0.156-2.132-0.701-2.496-1.949c-0.987,1.273-2.521,1.924-4.29,1.924
		c-2.756,0-4.42-1.664-4.42-4.213c0-2.809,2.263-4.394,6.396-4.394h2.028V19.5c0-2.002-1.223-2.73-3.25-2.73
		c-0.91,0-2.158,0.208-3.563,0.702l-0.598-1.664c1.689-0.598,3.146-0.858,4.498-0.858c3.406,0,5.122,1.716,5.122,4.42v6.578
		C145.271,27.039,145.608,27.455,146.389,27.689z M143.061,25.637v-3.512h-1.977c-3.016,0-4.108,1.092-4.108,2.861
		c0,1.715,0.832,2.6,2.626,2.6C140.954,27.586,142.254,26.857,143.061,25.637z"/>
	<path fill="#FFFFFF" d="M153.226,17.133c1.092-1.43,2.756-2.184,4.395-2.184c2.678,0,3.848,1.508,3.848,4.056v9.932h-2.184v-9.906
		c0-1.638-0.755-2.34-2.393-2.34c-1.534,0-2.938,1.196-3.666,2.262v9.984h-2.185V9.75l2.185-0.234V17.133z"/>
	<path fill="#319966" d="M171.815,24.648c1.326,0,2.288,1.014,2.288,2.287c0,1.301-0.962,2.289-2.288,2.289
		c-1.3,0-2.288-0.988-2.288-2.289C169.527,25.662,170.516,24.648,171.815,24.648z"/>
	<path fill="#FFFFFF" d="M192.018,26.156l1.039,1.43c-1.17,1.014-3.016,1.639-4.602,1.639c-4.108,0-6.448-2.783-6.448-7.072
		c0-4.109,2.366-7.203,6.448-7.203c1.768,0,3.302,0.546,4.576,1.612l-1.066,1.43c-1.17-0.78-2.313-1.196-3.536-1.196
		c-2.366,0-4.056,1.742-4.056,5.357c0,3.666,1.716,5.199,4.082,5.199C189.833,27.352,190.977,26.857,192.018,26.156z"/>
	<path fill="#FFFFFF" d="M208.942,22.074c0,4.211-2.08,7.15-5.901,7.15c-3.849,0-5.902-2.809-5.902-7.125
		c0-4.212,2.08-7.15,5.928-7.15C206.915,14.95,208.942,17.757,208.942,22.074z M199.504,22.1c0,3.641,1.171,5.33,3.537,5.33
		c2.365,0,3.535-1.689,3.535-5.355c0-3.615-1.17-5.331-3.51-5.331C200.7,16.744,199.504,18.459,199.504,22.1z"/>
	<path fill="#FFFFFF" d="M225.114,18.746v10.192h-2.002V19.11c0-1.742-0.078-2.444-1.066-2.444c-0.832,0-1.638,0.468-2.392,1.638
		v10.634h-2.028V19.11c0-1.742-0.078-2.444-1.065-2.444c-0.858,0-1.639,0.468-2.393,1.638v10.634h-2.002V15.235h1.689l0.156,1.612
		c0.729-1.066,1.586-1.898,2.965-1.898c1.039,0,2.054,0.416,2.47,1.82c0.754-1.092,1.638-1.82,3.016-1.82
		C223.788,14.95,225.114,15.6,225.114,18.746z"/>
</g>
<g>
	<path fill="#319966" d="M18.221,14.915l-10.399,6.08l10.399,5.951l-2.304,3.617L3.47,22.818v-3.616l12.511-7.776L18.221,14.915z"/>
	<path fill="#319966" d="M248.02,19.17v3.648l-12.479,7.744l-2.271-3.457l10.367-6.111l-10.367-5.92l2.238-3.648L248.02,19.17z"/>
</g>
</svg>
