<?xml version="1.0" standalone="no"?>
<!DOCTYPE svg PUBLIC "-//W3C//DTD SVG 20010904//EN"
 "http://www.w3.org/TR/2001/REC-SVG-20010904/DTD/svg10.dtd">
<svg version="1.0" xmlns="http://www.w3.org/2000/svg"
 width="324.000000pt" height="324.000000pt" viewBox="0 0 324.000000 324.000000"
 preserveAspectRatio="xMidYMid meet">
<metadata>
Created by potrace 1.11, written by Peter Selinger 2001-2013
</metadata>
<g transform="translate(0.000000,324.000000) scale(0.100000,-0.100000)"
fill="#000000" stroke="none">
<path d="M6 3224 c-3 -9 -5 -739 -4 -1622 l3 -1607 2 1548 c3 1273 5 1551 16
1562 9 8 13 34 12 70 -2 35 1 52 6 43 7 -10 11 -10 17 -1 6 10 340 13 1593 16
l1584 2 -1611 2 c-1457 3 -1613 1 -1618 -13z m24 -39 c0 -5 -5 -3 -10 5 -5 8
-10 20 -10 25 0 6 5 3 10 -5 5 -8 10 -19 10 -25z m-13 -37 c-3 -8 -6 -5 -6 6
-1 11 2 17 5 13 3 -3 4 -12 1 -19z"/>
<path d="M104 3182 c6 -10 -5 -26 -25 -38 -14 -8 -12 -12 13 -33 16 -13 28
-19 26 -15 -1 5 1 26 5 46 l8 38 1552 3 1552 2 -1568 2 c-862 2 -1566 -1
-1563 -5z"/>
<path d="M130 3143 c0 -7 1525 -7 2675 0 242 1 -261 3 -1117 5 -857 1 -1558
-1 -1558 -5z"/>
<path d="M210 3096 c0 -9 0 -19 -1 -23 0 -4 4 -9 10 -11 14 -5 14 35 1 43 -5
3 -10 -1 -10 -9z"/>
<path d="M273 3095 c-18 -20 -16 -37 5 -33 9 2 16 11 16 21 -2 16 86 17 1446
17 1360 0 1448 -1 1446 -17 0 -10 7 -19 17 -21 21 -4 22 14 3 34 -22 21 -2915
20 -2933 -1z"/>
<path d="M160 3080 c0 -5 4 -10 9 -10 6 0 13 5 16 10 3 6 -1 10 -9 10 -9 0
-16 -4 -16 -10z"/>
<path d="M1022 3073 c395 -2 1041 -2 1435 0 395 1 72 2 -717 2 -789 0 -1112
-1 -718 -2z"/>
<path d="M163 3042 c-8 -5 -9 -13 -3 -22 7 -12 12 -12 22 -2 14 14 -1 35 -19
24z"/>
<path d="M231 3024 c-17 -14 -29 -30 -26 -34 3 -5 -1 -11 -7 -13 -9 -4 -7 -6
3 -6 10 -1 19 -13 23 -32 8 -41 8 -2827 0 -2868 -4 -19 -13 -31 -23 -31 -12 0
-13 -2 -3 -9 8 -4 12 -12 10 -17 -2 -5 636 -10 1515 -12 l1517 -2 0 1519 c0
1322 -2 1520 -15 1525 -8 3 -21 -4 -30 -17 -14 -20 -15 -20 -15 -2 0 14 -3 16
-8 7 -7 -10 -299 -12 -1440 -10 -949 2 -1432 0 -1433 -7 0 -5 -5 0 -11 13 -14
28 -20 28 -57 -4z m44 7 c3 -5 1 -12 -5 -16 -5 -3 -10 1 -10 9 0 18 6 21 15 7z
m2945 -7 c0 -8 -5 -12 -10 -9 -6 4 -8 11 -5 16 9 14 15 11 15 -7z m-2977 -9
c-3 -9 -8 -14 -10 -11 -3 3 -2 9 2 15 9 16 15 13 8 -4z m1567 -709 l0 -463 28
-41 c15 -22 116 -158 225 -301 l198 -261 149 0 150 0 -32 44 c-18 25 -133 177
-255 338 l-223 294 0 427 0 427 475 0 475 -1 0 -1264 0 -1265 -665 0 -665 1 0
463 0 463 -30 44 c-16 24 -116 159 -223 299 l-193 255 -148 5 c-81 3 -149 3
-151 1 -2 -2 111 -155 251 -340 l254 -337 0 -427 0 -427 -475 0 -475 1 0 1264
0 1265 665 0 665 -1 0 -463z"/>
<path d="M156 2973 c-4 -9 -1 -22 6 -29 11 -11 13 -8 15 16 2 32 -11 40 -21
13z"/>
<path d="M161 66 c-6 -7 -9 -21 -5 -30 10 -27 23 -18 21 14 -2 35 -1 34 -16
16z"/>
</g>
</svg>
